<?xml version="1.0" standalone="no"?>
<!DOCTYPE svg PUBLIC "-//W3C//DTD SVG 20010904//EN"
 "http://www.w3.org/TR/2001/REC-SVG-20010904/DTD/svg10.dtd">
<svg version="1.0" xmlns="http://www.w3.org/2000/svg"
 width="210.000000pt" height="210.000000pt" viewBox="0 0 210.000000 210.000000"
 preserveAspectRatio="xMidYMid meet">
<metadata>
Created by potrace 1.14, written by Peter Selinger 2001-2017
</metadata>
<g transform="translate(0.000000,210.000000) scale(0.100000,-0.100000)"
fill="#000000" stroke="none">
<path d="M385 2036 c-83 -20 -146 -56 -211 -120 -65 -66 -105 -137 -123 -224
-15 -73 -15 -1211 0 -1284 36 -172 175 -311 347 -347 73 -15 1211 -15 1284 0
172 36 311 175 347 347 15 73 15 1211 0 1284 -36 172 -175 311 -347 347 -77
16 -1229 14 -1297 -3z m810 -371 c270 -68 475 -330 475 -607 0 -86 -25 -199
-51 -232 -26 -33 -77 -43 -118 -21 -47 24 -57 54 -43 124 26 125 9 256 -44
347 -14 23 -49 65 -79 93 -215 204 -560 135 -688 -136 -56 -121 -48 -284 19
-399 31 -52 118 -135 170 -162 52 -27 135 -49 209 -57 33 -3 143 -17 245 -31
204 -28 220 -36 220 -99 0 -41 -39 -91 -77 -98 -41 -8 -87 16 -113 57 -16 27
-27 35 -39 31 -65 -27 -121 -37 -222 -42 -102 -5 -126 -3 -190 17 -113 34
-186 77 -270 160 -87 87 -139 178 -169 296 -83 325 121 670 450 758 73 20 240
20 315 1z"/>
</g>
</svg>
